{"asset":{"version":"2.0","generator":"Blockbench 5.0.5 glTF exporter"},"scenes":[{"nodes":[0],"name":"blockbench_export"}],"scene":0,"nodes":[{"translation":[0,-0.614556875,0],"name":"cuboid","mesh":0}],"bufferViews":[{"buffer":0,"byteOffset":0,"byteLength":3072,"target":34962,"byteStride":12},{"buffer":0,"byteOffset":3072,"byteLength":3072,"target":34962,"byteStride":12},{"buffer":0,"byteOffset":6144,"byteLength":2048,"target":34962,"byteStride":8},{"buffer":0,"byteOffset":8192,"byteLength":768,"target":34963}],"buffers":[{"byteLength":8960,"uri":"data:application/octet-stream;base64,"}],"accessors":[{"bufferView":0,"componentType":5126,"count":256,"max":[124.875,8.411432266235352,125.1875],"min":[-125.125,-3.4010682106018066,-124.8125],"type":"VEC3"},{"bufferView":1,"componentType":5126,"count":256,"max":[0.174818217754364,0.9998480081558228,0.1702469140291214],"min":[-0.15477149188518524,0.9790617227554321,-0.16711540520191193],"type":"VEC3"},{"bufferView":2,"componentType":5126,"count":256,"max":[76.84192657470703,62.5],"min":[14.341928482055664,0],"type":"VEC2"},{"bufferView":3,"componentType":5123,"count":384,"max":[255],"min":[0],"type":"SCALAR"}],"materials":[{"pbrMetallicRoughness":{"metallicFactor":0,"roughnessFactor":1},"alphaMode":"MASK","alphaCutoff":0.05,"doubleSided":true}],"meshes":[{"primitives":[{"mode":4,"attributes":{"POSITION":0,"NORMAL":1,"TEXCOORD_0":2},"indices":3,"material":0}]}]}