# Made in Blockbench 5.0.5
mtllib character_model.mtl

o dd1647ea-2e8b-1a54-9cd1-36a30dd51fd4
v 0 1.125 0
v 0.0625 1.175000000745058 0.0625
v -0.0625 1.175000000745058 0.0625
v 0.0625 1.175000000745058 -0.0625
v 0 1.125 0
v -0.0625 1.175000000745058 -0.0625
v 0.0625 1.175000000745058 0.0625
v 0 1.125 0
v 0.0625 1.175000000745058 -0.0625
v 0 1.125 0
v -0.0625 1.175000000745058 0.0625
v -0.0625 1.175000000745058 -0.0625
v 0.0625 1.175000000745058 0.0625
v 0 1.375 0
v -0.0625 1.175000000745058 0.0625
v 0 1.375 0
v 0.0625 1.175000000745058 -0.0625
v -0.0625 1.175000000745058 -0.0625
v 0 1.375 0
v 0.0625 1.175000000745058 0.0625
v 0.0625 1.175000000745058 -0.0625
v -0.0625 1.175000000745058 0.0625
v 0 1.375 0
v -0.0625 1.175000000745058 -0.0625
vn 0 -0.2982749931359468 0.9544799780350297
vn 0 -0.2982749931359468 0.9544799780350297
vn 0 -0.2982749931359468 0.9544799780350297
vn 0 -0.2982749931359468 -0.9544799780350297
vn 0 -0.2982749931359468 -0.9544799780350297
vn 0 -0.2982749931359468 -0.9544799780350297
vn 0.9544799780350297 -0.2982749931359468 0
vn 0.9544799780350297 -0.2982749931359468 0
vn 0.9544799780350297 -0.2982749931359468 0
vn -0.9544799780350297 -0.2982749931359468 0
vn -0.9544799780350297 -0.2982749931359468 0
vn -0.9544799780350297 -0.2982749931359468 0
vn 0 0.0830454772629075 0.9965457584607823
vn 0 0.0830454772629075 0.9965457584607823
vn 0 0.0830454772629075 0.9965457584607823
vn 0 0.0830454772629075 -0.9965457584607823
vn 0 0.0830454772629075 -0.9965457584607823
vn 0 0.0830454772629075 -0.9965457584607823
vn 0.9965457584607823 0.0830454772629075 0
vn 0.9965457584607823 0.0830454772629075 0
vn 0.9965457584607823 0.0830454772629075 0
vn -0.9965457584607823 0.0830454772629075 0
vn -0.9965457584607823 0.0830454772629075 0
vn -0.9965457584607823 0.0830454772629075 0
f 1//1 2//2 3//3
f 4//4 5//5 6//6
f 7//7 8//8 9//9
f 10//10 11//11 12//12
f 13//13 14//14 15//15
f 16//16 17//17 18//18
f 19//19 20//20 21//21
f 22//22 23//23 24//24
o 9a26f154-b09c-24b4-f0d5-ddc6a1d0f4d7
v 0 1.625 0
v 0.0625 1.7250000014901161 0.0625
v -0.0625 1.7250000014901161 0.0625
v 0.0625 1.7250000014901161 -0.0625
v 0 1.625 0
v -0.0625 1.7250000014901161 -0.0625
v 0.0625 1.7250000014901161 0.0625
v 0 1.625 0
v 0.0625 1.7250000014901161 -0.0625
v 0 1.625 0
v -0.0625 1.7250000014901161 0.0625
v -0.0625 1.7250000014901161 -0.0625
v 0.0625 1.7250000014901161 0.0625
v 0 2.125 0
v -0.0625 1.7250000014901161 0.0625
v 0 2.125 0
v 0.0625 1.7250000014901161 -0.0625
v -0.0625 1.7250000014901161 -0.0625
v 0 2.125 0
v 0.0625 1.7250000014901161 0.0625
v 0.0625 1.7250000014901161 -0.0625
v -0.0625 1.7250000014901161 0.0625
v 0 2.125 0
v -0.0625 1.7250000014901161 -0.0625
vn 0 -0.1543768802736096 0.9880120337511015
vn 0 -0.1543768802736096 0.9880120337511015
vn 0 -0.1543768802736096 0.9880120337511015
vn 0 -0.1543768802736096 -0.9880120337511015
vn 0 -0.1543768802736096 -0.9880120337511015
vn 0 -0.1543768802736096 -0.9880120337511015
vn 0.9880120337511015 -0.1543768802736096 0
vn 0.9880120337511015 -0.1543768802736096 0
vn 0.9880120337511015 -0.1543768802736096 0
vn -0.9880120337511015 -0.1543768802736096 0
vn -0.9880120337511015 -0.1543768802736096 0
vn -0.9880120337511015 -0.1543768802736096 0
vn 0 0.041630543406649075 0.9991330731467492
vn 0 0.041630543406649075 0.9991330731467492
vn 0 0.041630543406649075 0.9991330731467492
vn 0 0.041630543406649075 -0.9991330731467492
vn 0 0.041630543406649075 -0.9991330731467492
vn 0 0.041630543406649075 -0.9991330731467492
vn 0.9991330731467492 0.041630543406649075 0
vn 0.9991330731467492 0.041630543406649075 0
vn 0.9991330731467492 0.041630543406649075 0
vn -0.9991330731467492 0.041630543406649075 0
vn -0.9991330731467492 0.041630543406649075 0
vn -0.9991330731467492 0.041630543406649075 0
f 25//25 26//26 27//27
f 28//28 29//29 30//30
f 31//31 32//32 33//33
f 34//34 35//35 36//36
f 37//37 38//38 39//39
f 40//40 41//41 42//42
f 43//43 44//44 45//45
f 46//46 47//47 48//48
o ef0987be-1e41-c9e6-367a-9c068ec76407
v 0 2.125 0
v 0.0625 2.1375000001862645 0.0625
v -0.0625 2.1375000001862645 0.0625
v 0.0625 2.1375000001862645 -0.0625
v 0 2.125 0
v -0.0625 2.1375000001862645 -0.0625
v 0.0625 2.1375000001862645 0.0625
v 0 2.125 0
v 0.0625 2.1375000001862645 -0.0625
v 0 2.125 0
v -0.0625 2.1375000001862645 0.0625
v -0.0625 2.1375000001862645 -0.0625
v 0.0625 2.1375000001862645 0.0625
v 0 2.1875 0
v -0.0625 2.1375000001862645 0.0625
v 0 2.1875 0
v 0.0625 2.1375000001862645 -0.0625
v -0.0625 2.1375000001862645 -0.0625
v 0 2.1875 0
v 0.0625 2.1375000001862645 0.0625
v 0.0625 2.1375000001862645 -0.0625
v -0.0625 2.1375000001862645 0.0625
v 0 2.1875 0
v -0.0625 2.1375000001862645 -0.0625
vn 0 -0.7808688094430303 0.6246950475544242
vn 0 -0.7808688094430303 0.6246950475544242
vn 0 -0.7808688094430303 0.6246950475544242
vn 0 -0.7808688094430303 -0.6246950475544242
vn 0 -0.7808688094430303 -0.6246950475544242
vn 0 -0.7808688094430303 -0.6246950475544242
vn 0.6246950475544242 -0.7808688094430303 0
vn 0.6246950475544242 -0.7808688094430303 0
vn 0.6246950475544242 -0.7808688094430303 0
vn -0.6246950475544242 -0.7808688094430303 0
vn -0.6246950475544242 -0.7808688094430303 0
vn -0.6246950475544242 -0.7808688094430303 0
vn 0 0.31622775707614137 0.9486833010307459
vn 0 0.31622775707614137 0.9486833010307459
vn 0 0.31622775707614137 0.9486833010307459
vn 0 0.31622775707614137 -0.9486833010307459
vn 0 0.31622775707614137 -0.9486833010307459
vn 0 0.31622775707614137 -0.9486833010307459
vn 0.9486833010307459 0.31622775707614137 0
vn 0.9486833010307459 0.31622775707614137 0
vn 0.9486833010307459 0.31622775707614137 0
vn -0.9486833010307459 0.31622775707614137 0
vn -0.9486833010307459 0.31622775707614137 0
vn -0.9486833010307459 0.31622775707614137 0
f 49//49 50//50 51//51
f 52//52 53//53 54//54
f 55//55 56//56 57//57
f 58//58 59//59 60//60
f 61//61 62//62 63//63
f 64//64 65//65 66//66
f 67//67 68//68 69//69
f 70//70 71//71 72//72
o 2fd1a674-263a-8d5c-15fa-e7d5c6f1cfce
v 0 2.1875 0
v 0.0625 2.237500000745058 0.0625
v -0.0625 2.237500000745058 0.0625
v 0.0625 2.237500000745058 -0.0625
v 0 2.1875 0
v -0.0625 2.237500000745058 -0.0625
v 0.0625 2.237500000745058 0.0625
v 0 2.1875 0
v 0.0625 2.237500000745058 -0.0625
v 0 2.1875 0
v -0.0625 2.237500000745058 0.0625
v -0.0625 2.237500000745058 -0.0625
v 0.0625 2.237500000745058 0.0625
v 0 2.4375 0
v -0.0625 2.237500000745058 0.0625
v 0 2.4375 0
v 0.0625 2.237500000745058 -0.0625
v -0.0625 2.237500000745058 -0.0625
v 0 2.4375 0
v 0.0625 2.237500000745058 0.0625
v 0.0625 2.237500000745058 -0.0625
v -0.0625 2.237500000745058 0.0625
v 0 2.4375 0
v -0.0625 2.237500000745058 -0.0625
vn 0 -0.2982749931359468 0.9544799780350297
vn 0 -0.2982749931359468 0.9544799780350297
vn 0 -0.2982749931359468 0.9544799780350297
vn 0 -0.2982749931359468 -0.9544799780350297
vn 0 -0.2982749931359468 -0.9544799780350297
vn 0 -0.2982749931359468 -0.9544799780350297
vn 0.9544799780350297 -0.2982749931359468 0
vn 0.9544799780350297 -0.2982749931359468 0
vn 0.9544799780350297 -0.2982749931359468 0
vn -0.9544799780350297 -0.2982749931359468 0
vn -0.9544799780350297 -0.2982749931359468 0
vn -0.9544799780350297 -0.2982749931359468 0
vn 0 0.0830454772629075 0.9965457584607823
vn 0 0.0830454772629075 0.9965457584607823
vn 0 0.0830454772629075 0.9965457584607823
vn 0 0.0830454772629075 -0.9965457584607823
vn 0 0.0830454772629075 -0.9965457584607823
vn 0 0.0830454772629075 -0.9965457584607823
vn 0.9965457584607823 0.0830454772629075 0
vn 0.9965457584607823 0.0830454772629075 0
vn 0.9965457584607823 0.0830454772629075 0
vn -0.9965457584607823 0.0830454772629075 0
vn -0.9965457584607823 0.0830454772629075 0
vn -0.9965457584607823 0.0830454772629075 0
f 73//73 74//74 75//75
f 76//76 77//77 78//78
f 79//79 80//80 81//81
f 82//82 83//83 84//84
f 85//85 86//86 87//87
f 88//88 89//89 90//90
f 91//91 92//92 93//93
f 94//94 95//95 96//96
o cdc12442-8a78-8482-bae4-24e7d56fe7d0
v 0 2.125 0
v 0.0750000011175871 2.0625 0.0625
v 0.07500000111758708 2.1875 0.0625
v 0.0750000011175871 2.0625 -0.0625
v 0 2.125 0
v 0.07500000111758708 2.1875 -0.0625
v 0.0750000011175871 2.0625 0.0625
v 0 2.125 0
v 0.0750000011175871 2.0625 -0.0625
v 0 2.125 0
v 0.07500000111758708 2.1875 0.0625
v 0.07500000111758708 2.1875 -0.0625
v 0.0750000011175871 2.0625 0.0625
v 0.375 2.125 0
v 0.07500000111758708 2.1875 0.0625
v 0.375 2.125 0
v 0.0750000011175871 2.0625 -0.0625
v 0.07500000111758708 2.1875 -0.0625
v 0.375 2.125 0
v 0.0750000011175871 2.0625 0.0625
v 0.0750000011175871 2.0625 -0.0625
v 0.07500000111758708 2.1875 0.0625
v 0.375 2.125 0
v 0.07500000111758708 2.1875 -0.0625
vn -0.20395425411200105 -4.5286941777078715e-17 0.9789804197376051
vn -0.20395425411200105 -4.5286941777078715e-17 0.9789804197376051
vn -0.20395425411200105 -4.5286941777078715e-17 0.9789804197376051
vn -0.20395425411200105 -4.5286941777078715e-17 -0.9789804197376051
vn -0.20395425411200105 -4.5286941777078715e-17 -0.9789804197376051
vn -0.20395425411200105 -4.5286941777078715e-17 -0.9789804197376051
vn -0.20395425411200083 -0.9789804197376051 0
vn -0.20395425411200083 -0.9789804197376051 0
vn -0.20395425411200083 -0.9789804197376051 0
vn -0.20395425411200127 0.9789804197376051 0
vn -0.20395425411200127 0.9789804197376051 0
vn -0.20395425411200127 0.9789804197376051 0
vn 0.05547001788532694 1.2316818206531841e-17 0.9984603533019232
vn 0.05547001788532694 1.2316818206531841e-17 0.9984603533019232
vn 0.05547001788532694 1.2316818206531841e-17 0.9984603533019232
vn 0.05547001788532694 1.2316818206531841e-17 -0.9984603533019232
vn 0.05547001788532694 1.2316818206531841e-17 -0.9984603533019232
vn 0.05547001788532694 1.2316818206531841e-17 -0.9984603533019232
vn 0.05547001788532716 -0.9984603533019232 0
vn 0.05547001788532716 -0.9984603533019232 0
vn 0.05547001788532716 -0.9984603533019232 0
vn 0.05547001788532673 0.9984603533019234 0
vn 0.05547001788532673 0.9984603533019234 0
vn 0.05547001788532673 0.9984603533019234 0
f 97//97 98//98 99//99
f 100//100 101//101 102//102
f 103//103 104//104 105//105
f 106//106 107//107 108//108
f 109//109 110//110 111//111
f 112//112 113//113 114//114
f 115//115 116//116 117//117
f 118//118 119//119 120//120
o 09353b72-0a1e-5b9f-c59b-fb7344dd5289
v 0.375 2.125 0
v 0.31250000000000006 2.0124999983236194 0.0625
v 0.43750000000000006 2.0124999983236194 0.0625
v 0.31250000000000006 2.0124999983236194 -0.0625
v 0.375 2.125 0
v 0.43750000000000006 2.0124999983236194 -0.0625
v 0.31250000000000006 2.0124999983236194 0.0625
v 0.375 2.125 0
v 0.31250000000000006 2.0124999983236194 -0.0625
v 0.375 2.125 0
v 0.43750000000000006 2.0124999983236194 0.0625
v 0.43750000000000006 2.0124999983236194 -0.0625
v 0.31250000000000006 2.0124999983236194 0.0625
v 0.3750000000000002 1.5625 0
v 0.43750000000000006 2.0124999983236194 0.0625
v 0.3750000000000002 1.5625 0
v 0.31250000000000006 2.0124999983236194 -0.0625
v 0.43750000000000006 2.0124999983236194 -0.0625
v 0.3750000000000002 1.5625 0
v 0.31250000000000006 2.0124999983236194 0.0625
v 0.31250000000000006 2.0124999983236194 -0.0625
v 0.43750000000000006 2.0124999983236194 0.0625
v 0.3750000000000002 1.5625 0
v 0.43750000000000006 2.0124999983236194 -0.0625
vn -6.109262929973613e-17 0.13756837127468774 0.9904922731777517
vn -6.109262929973613e-17 0.13756837127468774 0.9904922731777517
vn -6.109262929973613e-17 0.13756837127468774 0.9904922731777517
vn -6.109262929973613e-17 0.13756837127468774 -0.9904922731777517
vn -6.109262929973613e-17 0.13756837127468774 -0.9904922731777517
vn -6.109262929973613e-17 0.13756837127468774 -0.9904922731777517
vn -0.9904922731777517 0.1375683712746873 0
vn -0.9904922731777517 0.1375683712746873 0
vn -0.9904922731777517 0.1375683712746873 0
vn 0.9904922731777515 0.13756837127468813 0
vn 0.9904922731777515 0.13756837127468813 0
vn 0.9904922731777515 0.13756837127468813 0
vn 1.6436478555436592e-17 -0.03701165934877369 0.999314833809771
vn 1.6436478555436592e-17 -0.03701165934877369 0.999314833809771
vn 1.6436478555436592e-17 -0.03701165934877369 0.999314833809771
vn 1.6436478555436592e-17 -0.03701165934877369 -0.999314833809771
vn 1.6436478555436592e-17 -0.03701165934877369 -0.999314833809771
vn 1.6436478555436592e-17 -0.03701165934877369 -0.999314833809771
vn -0.999314833809771 -0.037011659348774144 0
vn -0.999314833809771 -0.037011659348774144 0
vn -0.999314833809771 -0.037011659348774144 0
vn 0.999314833809771 -0.03701165934877325 0
vn 0.999314833809771 -0.03701165934877325 0
vn 0.999314833809771 -0.03701165934877325 0
f 121//121 122//122 123//123
f 124//124 125//125 126//126
f 127//127 128//128 129//129
f 130//130 131//131 132//132
f 133//133 134//134 135//135
f 136//136 137//137 138//138
f 139//139 140//140 141//141
f 142//142 143//143 144//144
o f51ce4b3-f9c4-5851-1f21-4bc5b22afb66
v 0.3750000000000002 1.5625 0
v 0.3125000000000003 1.4499999983236194 0.0625
v 0.4375000000000003 1.4499999983236194 0.0625
v 0.3125000000000003 1.4499999983236194 -0.0625
v 0.3750000000000002 1.5625 0
v 0.4375000000000003 1.4499999983236194 -0.0625
v 0.3125000000000003 1.4499999983236194 0.0625
v 0.3750000000000002 1.5625 0
v 0.3125000000000003 1.4499999983236194 -0.0625
v 0.3750000000000002 1.5625 0
v 0.4375000000000003 1.4499999983236194 0.0625
v 0.4375000000000003 1.4499999983236194 -0.0625
v 0.3125000000000003 1.4499999983236194 0.0625
v 0.37500000000000044 1 0
v 0.4375000000000003 1.4499999983236194 0.0625
v 0.37500000000000044 1 0
v 0.3125000000000003 1.4499999983236194 -0.0625
v 0.4375000000000003 1.4499999983236194 -0.0625
v 0.37500000000000044 1 0
v 0.3125000000000003 1.4499999983236194 0.0625
v 0.3125000000000003 1.4499999983236194 -0.0625
v 0.4375000000000003 1.4499999983236194 0.0625
v 0.37500000000000044 1 0
v 0.4375000000000003 1.4499999983236194 -0.0625
vn -6.109262929973613e-17 0.13756837127468774 0.9904922731777517
vn -6.109262929973613e-17 0.13756837127468774 0.9904922731777517
vn -6.109262929973613e-17 0.13756837127468774 0.9904922731777517
vn -6.109262929973613e-17 0.13756837127468774 -0.9904922731777517
vn -6.109262929973613e-17 0.13756837127468774 -0.9904922731777517
vn -6.109262929973613e-17 0.13756837127468774 -0.9904922731777517
vn -0.9904922731777517 0.1375683712746873 0
vn -0.9904922731777517 0.1375683712746873 0
vn -0.9904922731777517 0.1375683712746873 0
vn 0.9904922731777515 0.13756837127468813 0
vn 0.9904922731777515 0.13756837127468813 0
vn 0.9904922731777515 0.13756837127468813 0
vn 1.6436478555436592e-17 -0.03701165934877369 0.999314833809771
vn 1.6436478555436592e-17 -0.03701165934877369 0.999314833809771
vn 1.6436478555436592e-17 -0.03701165934877369 0.999314833809771
vn 1.6436478555436592e-17 -0.03701165934877369 -0.999314833809771
vn 1.6436478555436592e-17 -0.03701165934877369 -0.999314833809771
vn 1.6436478555436592e-17 -0.03701165934877369 -0.999314833809771
vn -0.999314833809771 -0.037011659348774144 0
vn -0.999314833809771 -0.037011659348774144 0
vn -0.999314833809771 -0.037011659348774144 0
vn 0.999314833809771 -0.03701165934877325 0
vn 0.999314833809771 -0.03701165934877325 0
vn 0.999314833809771 -0.03701165934877325 0
f 145//145 146//146 147//147
f 148//148 149//149 150//150
f 151//151 152//152 153//153
f 154//154 155//155 156//156
f 157//157 158//158 159//159
f 160//160 161//161 162//162
f 163//163 164//164 165//165
f 166//166 167//167 168//168
o d5d022f0-7114-ec9f-da81-b54c3b9d7c89
v 0 2.125 0
v -0.07500000111758708 2.1875 0.0625
v -0.0750000011175871 2.0625 0.0625
v -0.07500000111758708 2.1875 -0.0625
v 0 2.125 0
v -0.0750000011175871 2.0625 -0.0625
v -0.07500000111758708 2.1875 0.0625
v 0 2.125 0
v -0.07500000111758708 2.1875 -0.0625
v 0 2.125 0
v -0.0750000011175871 2.0625 0.0625
v -0.0750000011175871 2.0625 -0.0625
v -0.07500000111758708 2.1875 0.0625
v -0.375 2.125 0
v -0.0750000011175871 2.0625 0.0625
v -0.375 2.125 0
v -0.07500000111758708 2.1875 -0.0625
v -0.0750000011175871 2.0625 -0.0625
v -0.375 2.125 0
v -0.07500000111758708 2.1875 0.0625
v -0.07500000111758708 2.1875 -0.0625
v -0.0750000011175871 2.0625 0.0625
v -0.375 2.125 0
v -0.0750000011175871 2.0625 -0.0625
vn 0.20395425411200105 -4.5286941777078715e-17 0.9789804197376051
vn 0.20395425411200105 -4.5286941777078715e-17 0.9789804197376051
vn 0.20395425411200105 -4.5286941777078715e-17 0.9789804197376051
vn 0.20395425411200105 -4.5286941777078715e-17 -0.9789804197376051
vn 0.20395425411200105 -4.5286941777078715e-17 -0.9789804197376051
vn 0.20395425411200105 -4.5286941777078715e-17 -0.9789804197376051
vn 0.20395425411200127 0.9789804197376051 0
vn 0.20395425411200127 0.9789804197376051 0
vn 0.20395425411200127 0.9789804197376051 0
vn 0.20395425411200083 -0.9789804197376051 0
vn 0.20395425411200083 -0.9789804197376051 0
vn 0.20395425411200083 -0.9789804197376051 0
vn -0.05547001788532694 1.2316818206531841e-17 0.9984603533019232
vn -0.05547001788532694 1.2316818206531841e-17 0.9984603533019232
vn -0.05547001788532694 1.2316818206531841e-17 0.9984603533019232
vn -0.05547001788532694 1.2316818206531841e-17 -0.9984603533019232
vn -0.05547001788532694 1.2316818206531841e-17 -0.9984603533019232
vn -0.05547001788532694 1.2316818206531841e-17 -0.9984603533019232
vn -0.05547001788532673 0.9984603533019234 0
vn -0.05547001788532673 0.9984603533019234 0
vn -0.05547001788532673 0.9984603533019234 0
vn -0.05547001788532716 -0.9984603533019232 0
vn -0.05547001788532716 -0.9984603533019232 0
vn -0.05547001788532716 -0.9984603533019232 0
f 169//169 170//170 171//171
f 172//172 173//173 174//174
f 175//175 176//176 177//177
f 178//178 179//179 180//180
f 181//181 182//182 183//183
f 184//184 185//185 186//186
f 187//187 188//188 189//189
f 190//190 191//191 192//192
o 56e83546-792c-ae57-b4ca-66de5bbd4083
v -0.375 2.125 0
v -0.43750000000000006 2.0124999983236194 0.0625
v -0.31250000000000006 2.0124999983236194 0.0625
v -0.43750000000000006 2.0124999983236194 -0.0625
v -0.375 2.125 0
v -0.31250000000000006 2.0124999983236194 -0.0625
v -0.43750000000000006 2.0124999983236194 0.0625
v -0.375 2.125 0
v -0.43750000000000006 2.0124999983236194 -0.0625
v -0.375 2.125 0
v -0.31250000000000006 2.0124999983236194 0.0625
v -0.31250000000000006 2.0124999983236194 -0.0625
v -0.43750000000000006 2.0124999983236194 0.0625
v -0.3750000000000002 1.5625 0
v -0.31250000000000006 2.0124999983236194 0.0625
v -0.3750000000000002 1.5625 0
v -0.43750000000000006 2.0124999983236194 -0.0625
v -0.31250000000000006 2.0124999983236194 -0.0625
v -0.3750000000000002 1.5625 0
v -0.43750000000000006 2.0124999983236194 0.0625
v -0.43750000000000006 2.0124999983236194 -0.0625
v -0.31250000000000006 2.0124999983236194 0.0625
v -0.3750000000000002 1.5625 0
v -0.31250000000000006 2.0124999983236194 -0.0625
vn 6.109262929973613e-17 0.13756837127468774 0.9904922731777517
vn 6.109262929973613e-17 0.13756837127468774 0.9904922731777517
vn 6.109262929973613e-17 0.13756837127468774 0.9904922731777517
vn 6.109262929973613e-17 0.13756837127468774 -0.9904922731777517
vn 6.109262929973613e-17 0.13756837127468774 -0.9904922731777517
vn 6.109262929973613e-17 0.13756837127468774 -0.9904922731777517
vn -0.9904922731777515 0.13756837127468813 0
vn -0.9904922731777515 0.13756837127468813 0
vn -0.9904922731777515 0.13756837127468813 0
vn 0.9904922731777517 0.1375683712746873 0
vn 0.9904922731777517 0.1375683712746873 0
vn 0.9904922731777517 0.1375683712746873 0
vn -1.6436478555436592e-17 -0.03701165934877369 0.999314833809771
vn -1.6436478555436592e-17 -0.03701165934877369 0.999314833809771
vn -1.6436478555436592e-17 -0.03701165934877369 0.999314833809771
vn -1.6436478555436592e-17 -0.03701165934877369 -0.999314833809771
vn -1.6436478555436592e-17 -0.03701165934877369 -0.999314833809771
vn -1.6436478555436592e-17 -0.03701165934877369 -0.999314833809771
vn -0.999314833809771 -0.03701165934877325 0
vn -0.999314833809771 -0.03701165934877325 0
vn -0.999314833809771 -0.03701165934877325 0
vn 0.999314833809771 -0.037011659348774144 0
vn 0.999314833809771 -0.037011659348774144 0
vn 0.999314833809771 -0.037011659348774144 0
f 193//193 194//194 195//195
f 196//196 197//197 198//198
f 199//199 200//200 201//201
f 202//202 203//203 204//204
f 205//205 206//206 207//207
f 208//208 209//209 210//210
f 211//211 212//212 213//213
f 214//214 215//215 216//216
o cfdece51-58ea-51ee-9a40-9e60d61f5566
v -0.3750000000000002 1.5625 0
v -0.4375000000000003 1.4499999983236194 0.0625
v -0.3125000000000003 1.4499999983236194 0.0625
v -0.4375000000000003 1.4499999983236194 -0.0625
v -0.3750000000000002 1.5625 0
v -0.3125000000000003 1.4499999983236194 -0.0625
v -0.4375000000000003 1.4499999983236194 0.0625
v -0.3750000000000002 1.5625 0
v -0.4375000000000003 1.4499999983236194 -0.0625
v -0.3750000000000002 1.5625 0
v -0.3125000000000003 1.4499999983236194 0.0625
v -0.3125000000000003 1.4499999983236194 -0.0625
v -0.4375000000000003 1.4499999983236194 0.0625
v -0.37500000000000044 1 0
v -0.3125000000000003 1.4499999983236194 0.0625
v -0.37500000000000044 1 0
v -0.4375000000000003 1.4499999983236194 -0.0625
v -0.3125000000000003 1.4499999983236194 -0.0625
v -0.37500000000000044 1 0
v -0.4375000000000003 1.4499999983236194 0.0625
v -0.4375000000000003 1.4499999983236194 -0.0625
v -0.3125000000000003 1.4499999983236194 0.0625
v -0.37500000000000044 1 0
v -0.3125000000000003 1.4499999983236194 -0.0625
vn 6.109262929973613e-17 0.13756837127468774 0.9904922731777517
vn 6.109262929973613e-17 0.13756837127468774 0.9904922731777517
vn 6.109262929973613e-17 0.13756837127468774 0.9904922731777517
vn 6.109262929973613e-17 0.13756837127468774 -0.9904922731777517
vn 6.109262929973613e-17 0.13756837127468774 -0.9904922731777517
vn 6.109262929973613e-17 0.13756837127468774 -0.9904922731777517
vn -0.9904922731777515 0.13756837127468813 0
vn -0.9904922731777515 0.13756837127468813 0
vn -0.9904922731777515 0.13756837127468813 0
vn 0.9904922731777517 0.1375683712746873 0
vn 0.9904922731777517 0.1375683712746873 0
vn 0.9904922731777517 0.1375683712746873 0
vn -1.6436478555436592e-17 -0.03701165934877369 0.999314833809771
vn -1.6436478555436592e-17 -0.03701165934877369 0.999314833809771
vn -1.6436478555436592e-17 -0.03701165934877369 0.999314833809771
vn -1.6436478555436592e-17 -0.03701165934877369 -0.999314833809771
vn -1.6436478555436592e-17 -0.03701165934877369 -0.999314833809771
vn -1.6436478555436592e-17 -0.03701165934877369 -0.999314833809771
vn -0.999314833809771 -0.03701165934877325 0
vn -0.999314833809771 -0.03701165934877325 0
vn -0.999314833809771 -0.03701165934877325 0
vn 0.999314833809771 -0.037011659348774144 0
vn 0.999314833809771 -0.037011659348774144 0
vn 0.999314833809771 -0.037011659348774144 0
f 217//217 218//218 219//219
f 220//220 221//221 222//222
f 223//223 224//224 225//225
f 226//226 227//227 228//228
f 229//229 230//230 231//231
f 232//232 233//233 234//234
f 235//235 236//236 237//237
f 238//238 239//239 240//240
o 8a2a57db-8bee-3338-3a63-c6fc45c71229
v 0 1.125 0
v 0.025000000372529044 1.0625 0.0625
v 0.025000000372529016 1.1875 0.0625
v 0.025000000372529044 1.0625 -0.0625
v 0 1.125 0
v 0.025000000372529016 1.1875 -0.0625
v 0.025000000372529044 1.0625 0.0625
v 0 1.125 0
v 0.025000000372529044 1.0625 -0.0625
v 0 1.125 0
v 0.025000000372529016 1.1875 0.0625
v 0.025000000372529016 1.1875 -0.0625
v 0.025000000372529044 1.0625 0.0625
v 0.125 1.125 0
v 0.025000000372529016 1.1875 0.0625
v 0.125 1.125 0
v 0.025000000372529044 1.0625 -0.0625
v 0.025000000372529016 1.1875 -0.0625
v 0.125 1.125 0
v 0.025000000372529044 1.0625 0.0625
v 0.025000000372529044 1.0625 -0.0625
v 0.025000000372529016 1.1875 0.0625
v 0.125 1.125 0
v 0.025000000372529016 1.1875 -0.0625
vn -0.5299989400031799 -1.1768340524369146e-16 0.8479983040050879
vn -0.5299989400031799 -1.1768340524369146e-16 0.8479983040050879
vn -0.5299989400031799 -1.1768340524369146e-16 0.8479983040050879
vn -0.5299989400031799 -1.1768340524369146e-16 -0.8479983040050879
vn -0.5299989400031799 -1.1768340524369146e-16 -0.8479983040050879
vn -0.5299989400031799 -1.1768340524369146e-16 -0.8479983040050879
vn -0.5299989400031798 -0.847998304005088 0
vn -0.5299989400031798 -0.847998304005088 0
vn -0.5299989400031798 -0.847998304005088 0
vn -0.52999894000318 0.8479983040050878 0
vn -0.52999894000318 0.8479983040050878 0
vn -0.52999894000318 0.8479983040050878 0
vn 0.16439898228044186 3.6503907070537936e-17 0.9863939246696297
vn 0.16439898228044186 3.6503907070537936e-17 0.9863939246696297
vn 0.16439898228044186 3.6503907070537936e-17 0.9863939246696297
vn 0.16439898228044186 3.6503907070537936e-17 -0.9863939246696297
vn 0.16439898228044186 3.6503907070537936e-17 -0.9863939246696297
vn 0.16439898228044186 3.6503907070537936e-17 -0.9863939246696297
vn 0.16439898228044206 -0.9863939246696295 0
vn 0.16439898228044206 -0.9863939246696295 0
vn 0.16439898228044206 -0.9863939246696295 0
vn 0.1643989822804416 0.9863939246696297 0
vn 0.1643989822804416 0.9863939246696297 0
vn 0.1643989822804416 0.9863939246696297 0
f 241//241 242//242 243//243
f 244//244 245//245 246//246
f 247//247 248//248 249//249
f 250//250 251//251 252//252
f 253//253 254//254 255//255
f 256//256 257//257 258//258
f 259//259 260//260 261//261
f 262//262 263//263 264//264
o a81c8cd2-aedd-5f8d-1573-2d3731ddca05
v 0.125 1.125 0
v 0.06250000000000006 1.0124999983236194 0.0625
v 0.18750000000000006 1.0124999983236194 0.0625
v 0.06250000000000006 1.0124999983236194 -0.0625
v 0.125 1.125 0
v 0.18750000000000006 1.0124999983236194 -0.0625
v 0.06250000000000006 1.0124999983236194 0.0625
v 0.125 1.125 0
v 0.06250000000000006 1.0124999983236194 -0.0625
v 0.125 1.125 0
v 0.18750000000000006 1.0124999983236194 0.0625
v 0.18750000000000006 1.0124999983236194 -0.0625
v 0.06250000000000006 1.0124999983236194 0.0625
v 0.12500000000000025 0.5625 0
v 0.18750000000000006 1.0124999983236194 0.0625
v 0.12500000000000025 0.5625 0
v 0.06250000000000006 1.0124999983236194 -0.0625
v 0.18750000000000006 1.0124999983236194 -0.0625
v 0.12500000000000025 0.5625 0
v 0.06250000000000006 1.0124999983236194 0.0625
v 0.06250000000000006 1.0124999983236194 -0.0625
v 0.18750000000000006 1.0124999983236194 0.0625
v 0.12500000000000025 0.5625 0
v 0.18750000000000006 1.0124999983236194 -0.0625
vn -6.109262929973613e-17 0.13756837127468774 0.9904922731777517
vn -6.109262929973613e-17 0.13756837127468774 0.9904922731777517
vn -6.109262929973613e-17 0.13756837127468774 0.9904922731777517
vn -6.109262929973613e-17 0.13756837127468774 -0.9904922731777517
vn -6.109262929973613e-17 0.13756837127468774 -0.9904922731777517
vn -6.109262929973613e-17 0.13756837127468774 -0.9904922731777517
vn -0.9904922731777517 0.1375683712746873 0
vn -0.9904922731777517 0.1375683712746873 0
vn -0.9904922731777517 0.1375683712746873 0
vn 0.9904922731777515 0.13756837127468813 0
vn 0.9904922731777515 0.13756837127468813 0
vn 0.9904922731777515 0.13756837127468813 0
vn 1.6436478555436592e-17 -0.03701165934877369 0.999314833809771
vn 1.6436478555436592e-17 -0.03701165934877369 0.999314833809771
vn 1.6436478555436592e-17 -0.03701165934877369 0.999314833809771
vn 1.6436478555436592e-17 -0.03701165934877369 -0.999314833809771
vn 1.6436478555436592e-17 -0.03701165934877369 -0.999314833809771
vn 1.6436478555436592e-17 -0.03701165934877369 -0.999314833809771
vn -0.999314833809771 -0.037011659348774144 0
vn -0.999314833809771 -0.037011659348774144 0
vn -0.999314833809771 -0.037011659348774144 0
vn 0.999314833809771 -0.03701165934877325 0
vn 0.999314833809771 -0.03701165934877325 0
vn 0.999314833809771 -0.03701165934877325 0
f 265//265 266//266 267//267
f 268//268 269//269 270//270
f 271//271 272//272 273//273
f 274//274 275//275 276//276
f 277//277 278//278 279//279
f 280//280 281//281 282//282
f 283//283 284//284 285//285
f 286//286 287//287 288//288
o a5f6362f-8920-a5a0-2159-61f1ddb5eab6
v 0.12500000000000025 0.5625 0
v 0.0625000000000003 0.44999999832361937 0.0625
v 0.1875000000000003 0.44999999832361937 0.0625
v 0.0625000000000003 0.44999999832361937 -0.0625
v 0.12500000000000025 0.5625 0
v 0.1875000000000003 0.44999999832361937 -0.0625
v 0.0625000000000003 0.44999999832361937 0.0625
v 0.12500000000000025 0.5625 0
v 0.0625000000000003 0.44999999832361937 -0.0625
v 0.12500000000000025 0.5625 0
v 0.1875000000000003 0.44999999832361937 0.0625
v 0.1875000000000003 0.44999999832361937 -0.0625
v 0.0625000000000003 0.44999999832361937 0.0625
v 0.1250000000000005 0 0
v 0.1875000000000003 0.44999999832361937 0.0625
v 0.1250000000000005 0 0
v 0.0625000000000003 0.44999999832361937 -0.0625
v 0.1875000000000003 0.44999999832361937 -0.0625
v 0.1250000000000005 0 0
v 0.0625000000000003 0.44999999832361937 0.0625
v 0.0625000000000003 0.44999999832361937 -0.0625
v 0.1875000000000003 0.44999999832361937 0.0625
v 0.1250000000000005 0 0
v 0.1875000000000003 0.44999999832361937 -0.0625
vn -6.109262929973613e-17 0.13756837127468774 0.9904922731777517
vn -6.109262929973613e-17 0.13756837127468774 0.9904922731777517
vn -6.109262929973613e-17 0.13756837127468774 0.9904922731777517
vn -6.109262929973613e-17 0.13756837127468774 -0.9904922731777517
vn -6.109262929973613e-17 0.13756837127468774 -0.9904922731777517
vn -6.109262929973613e-17 0.13756837127468774 -0.9904922731777517
vn -0.9904922731777517 0.1375683712746873 0
vn -0.9904922731777517 0.1375683712746873 0
vn -0.9904922731777517 0.1375683712746873 0
vn 0.9904922731777515 0.13756837127468813 0
vn 0.9904922731777515 0.13756837127468813 0
vn 0.9904922731777515 0.13756837127468813 0
vn 1.6436478555436592e-17 -0.03701165934877369 0.999314833809771
vn 1.6436478555436592e-17 -0.03701165934877369 0.999314833809771
vn 1.6436478555436592e-17 -0.03701165934877369 0.999314833809771
vn 1.6436478555436592e-17 -0.03701165934877369 -0.999314833809771
vn 1.6436478555436592e-17 -0.03701165934877369 -0.999314833809771
vn 1.6436478555436592e-17 -0.03701165934877369 -0.999314833809771
vn -0.999314833809771 -0.037011659348774144 0
vn -0.999314833809771 -0.037011659348774144 0
vn -0.999314833809771 -0.037011659348774144 0
vn 0.999314833809771 -0.03701165934877325 0
vn 0.999314833809771 -0.03701165934877325 0
vn 0.999314833809771 -0.03701165934877325 0
f 289//289 290//290 291//291
f 292//292 293//293 294//294
f 295//295 296//296 297//297
f 298//298 299//299 300//300
f 301//301 302//302 303//303
f 304//304 305//305 306//306
f 307//307 308//308 309//309
f 310//310 311//311 312//312
o 7d796bb1-b2ab-e9d5-82af-5ec647a9974d
v 0 1.125 0
v -0.025000000372529016 1.1875 0.0625
v -0.025000000372529044 1.0625 0.0625
v -0.025000000372529016 1.1875 -0.0625
v 0 1.125 0
v -0.025000000372529044 1.0625 -0.0625
v -0.025000000372529016 1.1875 0.0625
v 0 1.125 0
v -0.025000000372529016 1.1875 -0.0625
v 0 1.125 0
v -0.025000000372529044 1.0625 0.0625
v -0.025000000372529044 1.0625 -0.0625
v -0.025000000372529016 1.1875 0.0625
v -0.125 1.125 0
v -0.025000000372529044 1.0625 0.0625
v -0.125 1.125 0
v -0.025000000372529016 1.1875 -0.0625
v -0.025000000372529044 1.0625 -0.0625
v -0.125 1.125 0
v -0.025000000372529016 1.1875 0.0625
v -0.025000000372529016 1.1875 -0.0625
v -0.025000000372529044 1.0625 0.0625
v -0.125 1.125 0
v -0.025000000372529044 1.0625 -0.0625
vn 0.5299989400031799 -1.1768340524369146e-16 0.8479983040050879
vn 0.5299989400031799 -1.1768340524369146e-16 0.8479983040050879
vn 0.5299989400031799 -1.1768340524369146e-16 0.8479983040050879
vn 0.5299989400031799 -1.1768340524369146e-16 -0.8479983040050879
vn 0.5299989400031799 -1.1768340524369146e-16 -0.8479983040050879
vn 0.5299989400031799 -1.1768340524369146e-16 -0.8479983040050879
vn 0.52999894000318 0.8479983040050878 0
vn 0.52999894000318 0.8479983040050878 0
vn 0.52999894000318 0.8479983040050878 0
vn 0.5299989400031798 -0.847998304005088 0
vn 0.5299989400031798 -0.847998304005088 0
vn 0.5299989400031798 -0.847998304005088 0
vn -0.16439898228044186 3.6503907070537936e-17 0.9863939246696297
vn -0.16439898228044186 3.6503907070537936e-17 0.9863939246696297
vn -0.16439898228044186 3.6503907070537936e-17 0.9863939246696297
vn -0.16439898228044186 3.6503907070537936e-17 -0.9863939246696297
vn -0.16439898228044186 3.6503907070537936e-17 -0.9863939246696297
vn -0.16439898228044186 3.6503907070537936e-17 -0.9863939246696297
vn -0.1643989822804416 0.9863939246696297 0
vn -0.1643989822804416 0.9863939246696297 0
vn -0.1643989822804416 0.9863939246696297 0
vn -0.16439898228044206 -0.9863939246696295 0
vn -0.16439898228044206 -0.9863939246696295 0
vn -0.16439898228044206 -0.9863939246696295 0
f 313//313 314//314 315//315
f 316//316 317//317 318//318
f 319//319 320//320 321//321
f 322//322 323//323 324//324
f 325//325 326//326 327//327
f 328//328 329//329 330//330
f 331//331 332//332 333//333
f 334//334 335//335 336//336
o cf0d2ec6-a9c4-8089-cc3a-7a2d5c1d9066
v -0.125 1.125 0
v -0.18750000000000006 1.0124999983236194 0.0625
v -0.06250000000000006 1.0124999983236194 0.0625
v -0.18750000000000006 1.0124999983236194 -0.0625
v -0.125 1.125 0
v -0.06250000000000006 1.0124999983236194 -0.0625
v -0.18750000000000006 1.0124999983236194 0.0625
v -0.125 1.125 0
v -0.18750000000000006 1.0124999983236194 -0.0625
v -0.125 1.125 0
v -0.06250000000000006 1.0124999983236194 0.0625
v -0.06250000000000006 1.0124999983236194 -0.0625
v -0.18750000000000006 1.0124999983236194 0.0625
v -0.12500000000000025 0.5625 0
v -0.06250000000000006 1.0124999983236194 0.0625
v -0.12500000000000025 0.5625 0
v -0.18750000000000006 1.0124999983236194 -0.0625
v -0.06250000000000006 1.0124999983236194 -0.0625
v -0.12500000000000025 0.5625 0
v -0.18750000000000006 1.0124999983236194 0.0625
v -0.18750000000000006 1.0124999983236194 -0.0625
v -0.06250000000000006 1.0124999983236194 0.0625
v -0.12500000000000025 0.5625 0
v -0.06250000000000006 1.0124999983236194 -0.0625
vn 6.109262929973613e-17 0.13756837127468774 0.9904922731777517
vn 6.109262929973613e-17 0.13756837127468774 0.9904922731777517
vn 6.109262929973613e-17 0.13756837127468774 0.9904922731777517
vn 6.109262929973613e-17 0.13756837127468774 -0.9904922731777517
vn 6.109262929973613e-17 0.13756837127468774 -0.9904922731777517
vn 6.109262929973613e-17 0.13756837127468774 -0.9904922731777517
vn -0.9904922731777515 0.13756837127468813 0
vn -0.9904922731777515 0.13756837127468813 0
vn -0.9904922731777515 0.13756837127468813 0
vn 0.9904922731777517 0.1375683712746873 0
vn 0.9904922731777517 0.1375683712746873 0
vn 0.9904922731777517 0.1375683712746873 0
vn -1.6436478555436592e-17 -0.03701165934877369 0.999314833809771
vn -1.6436478555436592e-17 -0.03701165934877369 0.999314833809771
vn -1.6436478555436592e-17 -0.03701165934877369 0.999314833809771
vn -1.6436478555436592e-17 -0.03701165934877369 -0.999314833809771
vn -1.6436478555436592e-17 -0.03701165934877369 -0.999314833809771
vn -1.6436478555436592e-17 -0.03701165934877369 -0.999314833809771
vn -0.999314833809771 -0.03701165934877325 0
vn -0.999314833809771 -0.03701165934877325 0
vn -0.999314833809771 -0.03701165934877325 0
vn 0.999314833809771 -0.037011659348774144 0
vn 0.999314833809771 -0.037011659348774144 0
vn 0.999314833809771 -0.037011659348774144 0
f 337//337 338//338 339//339
f 340//340 341//341 342//342
f 343//343 344//344 345//345
f 346//346 347//347 348//348
f 349//349 350//350 351//351
f 352//352 353//353 354//354
f 355//355 356//356 357//357
f 358//358 359//359 360//360
o ff0230e2-f4b2-e782-f7d8-7724ebc19037
v -0.12500000000000025 0.5625 0
v -0.1875000000000003 0.44999999832361937 0.0625
v -0.0625000000000003 0.44999999832361937 0.0625
v -0.1875000000000003 0.44999999832361937 -0.0625
v -0.12500000000000025 0.5625 0
v -0.0625000000000003 0.44999999832361937 -0.0625
v -0.1875000000000003 0.44999999832361937 0.0625
v -0.12500000000000025 0.5625 0
v -0.1875000000000003 0.44999999832361937 -0.0625
v -0.12500000000000025 0.5625 0
v -0.0625000000000003 0.44999999832361937 0.0625
v -0.0625000000000003 0.44999999832361937 -0.0625
v -0.1875000000000003 0.44999999832361937 0.0625
v -0.1250000000000005 0 0
v -0.0625000000000003 0.44999999832361937 0.0625
v -0.1250000000000005 0 0
v -0.1875000000000003 0.44999999832361937 -0.0625
v -0.0625000000000003 0.44999999832361937 -0.0625
v -0.1250000000000005 0 0
v -0.1875000000000003 0.44999999832361937 0.0625
v -0.1875000000000003 0.44999999832361937 -0.0625
v -0.0625000000000003 0.44999999832361937 0.0625
v -0.1250000000000005 0 0
v -0.0625000000000003 0.44999999832361937 -0.0625
vn 6.109262929973613e-17 0.13756837127468774 0.9904922731777517
vn 6.109262929973613e-17 0.13756837127468774 0.9904922731777517
vn 6.109262929973613e-17 0.13756837127468774 0.9904922731777517
vn 6.109262929973613e-17 0.13756837127468774 -0.9904922731777517
vn 6.109262929973613e-17 0.13756837127468774 -0.9904922731777517
vn 6.109262929973613e-17 0.13756837127468774 -0.9904922731777517
vn -0.9904922731777515 0.13756837127468813 0
vn -0.9904922731777515 0.13756837127468813 0
vn -0.9904922731777515 0.13756837127468813 0
vn 0.9904922731777517 0.1375683712746873 0
vn 0.9904922731777517 0.1375683712746873 0
vn 0.9904922731777517 0.1375683712746873 0
vn -1.6436478555436592e-17 -0.03701165934877369 0.999314833809771
vn -1.6436478555436592e-17 -0.03701165934877369 0.999314833809771
vn -1.6436478555436592e-17 -0.03701165934877369 0.999314833809771
vn -1.6436478555436592e-17 -0.03701165934877369 -0.999314833809771
vn -1.6436478555436592e-17 -0.03701165934877369 -0.999314833809771
vn -1.6436478555436592e-17 -0.03701165934877369 -0.999314833809771
vn -0.999314833809771 -0.03701165934877325 0
vn -0.999314833809771 -0.03701165934877325 0
vn -0.999314833809771 -0.03701165934877325 0
vn 0.999314833809771 -0.037011659348774144 0
vn 0.999314833809771 -0.037011659348774144 0
vn 0.999314833809771 -0.037011659348774144 0
f 361//361 362//362 363//363
f 364//364 365//365 366//366
f 367//367 368//368 369//369
f 370//370 371//371 372//372
f 373//373 374//374 375//375
f 376//376 377//377 378//378
f 379//379 380//380 381//381
f 382//382 383//383 384//384
o body
v 0.25 1.625 0.125
v 0.25 1.625 -0.125
v 0.25 1.125 0.125
v 0.25 1.125 -0.125
v -0.25 1.625 0.125
v -0.25 1.625 -0.125
v -0.25 1.125 0.125
v -0.25 1.125 -0.125
vt 0.0625 0.234375
vt 0.0625 0.359375
vt 0 0.359375
vt 0 0.234375
vt 0.125 0.34375
vt 0.125 0.28125
vt 0.25 0.28125
vt 0.25 0.34375
vt 0.25 0.28125
vt 0.25 0.34375
vt 0.375 0.34375
vt 0.375 0.28125
vt 0.125 0.5
vt 0.125 0.625
vt 0 0.625
vt 0 0.5
vt 0.375 0.625
vt 0.375 0.75
vt 0.25 0.75
vt 0.25 0.625
vt 0 0.359375
vt 0.0625 0.359375
vt 0.0625 0.234375
vt 0 0.234375
vn 1 0 0
vn 0 1 0
vn 0 -1 0
vn 0 0 1
vn 0 0 -1
vn -1 0 0
usemtl m_cfaf0bf7-9b06-4372-1e17-d8dc0c302bc6
f 388/1/385 386/2/385 385/3/385 387/4/385
f 385/5/386 386/6/386 390/7/386 389/8/386
f 388/9/387 387/10/387 391/11/387 392/12/387
f 387/13/388 385/14/388 389/15/388 391/16/388
f 392/17/389 390/18/389 386/19/389 388/20/389
f 389/21/390 390/22/390 392/23/390 391/24/390
o left_leg
v 0 1.125 0.125
v 0 1.125 -0.125
v 0 0.5625 0.125
v 0 0.5625 -0.125
v -0.25 1.125 0.125
v -0.25 1.125 -0.125
v -0.25 0.5625 0.125
v -0.25 0.5625 -0.125
vt 0.5625 0.4375
vt 0.5625 0.578125
vt 0.5 0.578125
vt 0.5 0.4375
vt 0.25 0.34375
vt 0.25 0.484375
vt 0.1875 0.484375
vt 0.1875 0.34375
vt 0.375 0.296875
vt 0.375 0.234375
vt 0.4375 0.234375
vt 0.4375 0.296875
vt 0.4375 0.234375
vt 0.4375 0.296875
vt 0.5 0.296875
vt 0.5 0.234375
vt 0.1875 0.34375
vt 0.1875 0.484375
vt 0.125 0.484375
vt 0.125 0.34375
vt 0.5625 0.578125
vt 0.5625 0.71875
vt 0.5 0.71875
vt 0.5 0.578125
vn 1 0 0
vn -1 0 0
vn 0 1 0
vn 0 -1 0
vn 0 0 1
vn 0 0 -1
usemtl m_cfaf0bf7-9b06-4372-1e17-d8dc0c302bc6
f 396/25/391 394/26/391 393/27/391 395/28/391
f 399/29/392 397/30/392 398/31/392 400/32/392
f 393/33/393 394/34/393 398/35/393 397/36/393
f 396/37/394 395/38/394 399/39/394 400/40/394
f 395/41/395 393/42/395 397/43/395 399/44/395
f 400/45/396 398/46/396 394/47/396 396/48/396
o left_shin
v 0 0.5625 0.125
v 0 0.5625 -0.125
v 0 0 0.125
v 0 0 -0.125
v -0.25 0.5625 0.125
v -0.25 0.5625 -0.125
v -0.25 0 0.125
v -0.25 0 -0.125
vt 0.375 0.34375
vt 0.375 0.484375
vt 0.3125 0.484375
vt 0.3125 0.34375
vt 0.625 0.71875
vt 0.625 0.859375
vt 0.5625 0.859375
vt 0.5625 0.71875
vt 0.5 0.296875
vt 0.5 0.234375
vt 0.5625 0.234375
vt 0.5625 0.296875
vt 0.5625 0.234375
vt 0.5625 0.296875
vt 0.625 0.296875
vt 0.625 0.234375
vt 0.625 0.859375
vt 0.625 1
vt 0.5625 1
vt 0.5625 0.859375
vt 0.3125 0.34375
vt 0.3125 0.484375
vt 0.25 0.484375
vt 0.25 0.34375
vn 1 0 0
vn -1 0 0
vn 0 1 0
vn 0 -1 0
vn 0 0 1
vn 0 0 -1
usemtl m_cfaf0bf7-9b06-4372-1e17-d8dc0c302bc6
f 404/49/397 402/50/397 401/51/397 403/52/397
f 407/53/398 405/54/398 406/55/398 408/56/398
f 401/57/399 402/58/399 406/59/399 405/60/399
f 404/61/400 403/62/400 407/63/400 408/64/400
f 403/65/401 401/66/401 405/67/401 407/68/401
f 408/69/402 406/70/402 402/71/402 404/72/402
o head
v 0.25 2.6875 0.25
v 0.25 2.6875 -0.25
v 0.25 2.1875 0.25
v 0.25 2.1875 -0.25
v -0.25 2.6875 0.25
v -0.25 2.6875 -0.25
v -0.25 2.1875 0.25
v -0.25 2.1875 -0.25
vt 0.25 0.75
vt 0.25 0.875
vt 0.125 0.875
vt 0.125 0.75
vt 0.375 0.875
vt 0.375 1
vt 0.25 1
vt 0.25 0.875
vt 0.125 0.75
vt 0.125 0.625
vt 0.25 0.625
vt 0.25 0.75
vt 0.25 0.75
vt 0.25 0.875
vt 0.375 0.875
vt 0.375 0.75
vt 0.125 0.625
vt 0.125 0.75
vt 0 0.75
vt 0 0.625
vt 0.25 0.875
vt 0.25 1
vt 0.125 1
vt 0.125 0.875
vn 1 0 0
vn -1 0 0
vn 0 1 0
vn 0 -1 0
vn 0 0 1
vn 0 0 -1
usemtl m_cfaf0bf7-9b06-4372-1e17-d8dc0c302bc6
f 412/73/403 410/74/403 409/75/403 411/76/403
f 415/77/404 413/78/404 414/79/404 416/80/404
f 409/81/405 410/82/405 414/83/405 413/84/405
f 412/85/406 411/86/406 415/87/406 416/88/406
f 411/89/407 409/90/407 413/91/407 415/92/407
f 416/93/408 414/94/408 410/95/408 412/96/408
o neck
v 0.125 2.1875 0.125
v 0.125 2.1875 -0.125
v 0.125 2.125 0.125
v 0.125 2.125 -0.125
v -0.125 2.1875 0.125
v -0.125 2.1875 -0.125
v -0.125 2.125 0.125
v -0.125 2.125 -0.125
vt 0.75 0.46875
vt 0.75 0.484375
vt 0.6875 0.484375
vt 0.6875 0.46875
vt 0.75 0.265625
vt 0.75 0.28125
vt 0.6875 0.28125
vt 0.6875 0.265625
vt 0.6875 0.5625
vt 0.6875 0.5
vt 0.75 0.5
vt 0.75 0.5625
vt 0.6875 0.28125
vt 0.6875 0.34375
vt 0.75 0.34375
vt 0.75 0.28125
vt 0.6875 0.265625
vt 0.6875 0.28125
vt 0.625 0.28125
vt 0.625 0.265625
vt 0.75 0.484375
vt 0.75 0.5
vt 0.6875 0.5
vt 0.6875 0.484375
vn 1 0 0
vn -1 0 0
vn 0 1 0
vn 0 -1 0
vn 0 0 1
vn 0 0 -1
usemtl m_cfaf0bf7-9b06-4372-1e17-d8dc0c302bc6
f 420/97/409 418/98/409 417/99/409 419/100/409
f 423/101/410 421/102/410 422/103/410 424/104/410
f 417/105/411 418/106/411 422/107/411 421/108/411
f 420/109/412 419/110/412 423/111/412 424/112/412
f 419/113/413 417/114/413 421/115/413 423/116/413
f 424/117/414 422/118/414 418/119/414 420/120/414
o left_forearm
v -0.25 1.5625 0.125
v -0.25 1.5625 -0.125
v -0.25 1 0.125
v -0.25 1 -0.125
v -0.5 1.5625 0.125
v -0.5 1.5625 -0.125
v -0.5 1 0.125
v -0.5 1 -0.125
vt 0.5625 0.859375
vt 0.5625 1
vt 0.5 1
vt 0.5 0.859375
vt 0.5625 0.71875
vt 0.5625 0.859375
vt 0.5 0.859375
vt 0.5 0.71875
vt 0.6875 0.6875
vt 0.6875 0.625
vt 0.75 0.625
vt 0.75 0.6875
vt 0.6875 0.5625
vt 0.6875 0.625
vt 0.75 0.625
vt 0.75 0.5625
vt 0.125 0.359375
vt 0.125 0.5
vt 0.0625 0.5
vt 0.0625 0.359375
vt 0.0625 0.359375
vt 0.0625 0.5
vt 0 0.5
vt 0 0.359375
vn 1 0 0
vn -1 0 0
vn 0 1 0
vn 0 -1 0
vn 0 0 1
vn 0 0 -1
usemtl m_cfaf0bf7-9b06-4372-1e17-d8dc0c302bc6
f 428/121/415 426/122/415 425/123/415 427/124/415
f 431/125/416 429/126/416 430/127/416 432/128/416
f 425/129/417 426/130/417 430/131/417 429/132/417
f 428/133/418 427/134/418 431/135/418 432/136/418
f 427/137/419 425/138/419 429/139/419 431/140/419
f 432/141/420 430/142/420 426/143/420 428/144/420
o left_arm
v -0.25 2.125 0.125
v -0.25 2.125 -0.125
v -0.25 1.5625 0.125
v -0.25 1.5625 -0.125
v -0.5 2.125 0.125
v -0.5 2.125 -0.125
v -0.5 1.5625 0.125
v -0.5 1.5625 -0.125
vt 0.5 0.71875
vt 0.5 0.859375
vt 0.4375 0.859375
vt 0.4375 0.71875
vt 0.5 0.4375
vt 0.5 0.578125
vt 0.4375 0.578125
vt 0.4375 0.4375
vt 0.6875 0.8125
vt 0.6875 0.75
vt 0.75 0.75
vt 0.75 0.8125
vt 0.6875 0.6875
vt 0.6875 0.75
vt 0.75 0.75
vt 0.75 0.6875
vt 0.5 0.578125
vt 0.5 0.71875
vt 0.4375 0.71875
vt 0.4375 0.578125
vt 0.5 0.859375
vt 0.5 1
vt 0.4375 1
vt 0.4375 0.859375
vn 1 0 0
vn -1 0 0
vn 0 1 0
vn 0 -1 0
vn 0 0 1
vn 0 0 -1
usemtl m_cfaf0bf7-9b06-4372-1e17-d8dc0c302bc6
f 436/145/421 434/146/421 433/147/421 435/148/421
f 439/149/422 437/150/422 438/151/422 440/152/422
f 433/153/423 434/154/423 438/155/423 437/156/423
f 436/157/424 435/158/424 439/159/424 440/160/424
f 435/161/425 433/162/425 437/163/425 439/164/425
f 440/165/426 438/166/426 434/167/426 436/168/426
o right_forearm
v 0.5 1.5625 0.125
v 0.5 1.5625 -0.125
v 0.5 1 0.125
v 0.5 1 -0.125
v 0.25 1.5625 0.125
v 0.25 1.5625 -0.125
v 0.25 1 0.125
v 0.25 1 -0.125
vt 0.4375 0.578125
vt 0.4375 0.71875
vt 0.375 0.71875
vt 0.375 0.578125
vt 0.4375 0.4375
vt 0.4375 0.578125
vt 0.375 0.578125
vt 0.375 0.4375
vt 0.6875 0.9375
vt 0.6875 0.875
vt 0.75 0.875
vt 0.75 0.9375
vt 0.6875 0.8125
vt 0.6875 0.875
vt 0.75 0.875
vt 0.75 0.8125
vt 0.375 0.484375
vt 0.375 0.625
vt 0.3125 0.625
vt 0.3125 0.484375
vt 0.3125 0.484375
vt 0.3125 0.625
vt 0.25 0.625
vt 0.25 0.484375
vn 1 0 0
vn -1 0 0
vn 0 1 0
vn 0 -1 0
vn 0 0 1
vn 0 0 -1
usemtl m_cfaf0bf7-9b06-4372-1e17-d8dc0c302bc6
f 444/169/427 442/170/427 441/171/427 443/172/427
f 447/173/428 445/174/428 446/175/428 448/176/428
f 441/177/429 442/178/429 446/179/429 445/180/429
f 444/181/430 443/182/430 447/183/430 448/184/430
f 443/185/431 441/186/431 445/187/431 447/188/431
f 448/189/432 446/190/432 442/191/432 444/192/432
o right_arm
v 0.5 2.125 0.125
v 0.5 2.125 -0.125
v 0.5 1.5625 0.125
v 0.5 1.5625 -0.125
v 0.25 2.125 0.125
v 0.25 2.125 -0.125
v 0.25 1.5625 0.125
v 0.25 1.5625 -0.125
vt 0.1875 0.484375
vt 0.1875 0.625
vt 0.125 0.625
vt 0.125 0.484375
vt 0.25 0.484375
vt 0.25 0.625
vt 0.1875 0.625
vt 0.1875 0.484375
vt 0.625 0.34375
vt 0.625 0.28125
vt 0.6875 0.28125
vt 0.6875 0.34375
vt 0.6875 0.9375
vt 0.6875 1
vt 0.75 1
vt 0.75 0.9375
vt 0.4375 0.71875
vt 0.4375 0.859375
vt 0.375 0.859375
vt 0.375 0.71875
vt 0.4375 0.859375
vt 0.4375 1
vt 0.375 1
vt 0.375 0.859375
vn 1 0 0
vn -1 0 0
vn 0 1 0
vn 0 -1 0
vn 0 0 1
vn 0 0 -1
usemtl m_cfaf0bf7-9b06-4372-1e17-d8dc0c302bc6
f 452/193/433 450/194/433 449/195/433 451/196/433
f 455/197/434 453/198/434 454/199/434 456/200/434
f 449/201/435 450/202/435 454/203/435 453/204/435
f 452/205/436 451/206/436 455/207/436 456/208/436
f 451/209/437 449/210/437 453/211/437 455/212/437
f 456/213/438 454/214/438 450/215/438 452/216/438
o upper_body
v 0.25 2.125 0.125
v 0.25 2.125 -0.125
v 0.25 1.625 0.125
v 0.25 1.625 -0.125
v -0.25 2.125 0.125
v -0.25 2.125 -0.125
v -0.25 1.625 0.125
v -0.25 1.625 -0.125
vt 0.6875 0.59375
vt 0.6875 0.71875
vt 0.625 0.71875
vt 0.625 0.59375
vt 0.6875 0.46875
vt 0.6875 0.59375
vt 0.625 0.59375
vt 0.625 0.46875
vt 0.625 0.46875
vt 0.625 0.40625
vt 0.75 0.40625
vt 0.75 0.46875
vt 0.625 0.34375
vt 0.625 0.40625
vt 0.75 0.40625
vt 0.75 0.34375
vt 0.125 0.75
vt 0.125 0.875
vt 0 0.875
vt 0 0.75
vt 0.125 0.875
vt 0.125 1
vt 0 1
vt 0 0.875
vn 1 0 0
vn -1 0 0
vn 0 1 0
vn 0 -1 0
vn 0 0 1
vn 0 0 -1
usemtl m_cfaf0bf7-9b06-4372-1e17-d8dc0c302bc6
f 460/217/439 458/218/439 457/219/439 459/220/439
f 463/221/440 461/222/440 462/223/440 464/224/440
f 457/225/441 458/226/441 462/227/441 461/228/441
f 460/229/442 459/230/442 463/231/442 464/232/442
f 459/233/443 457/234/443 461/235/443 463/236/443
f 464/237/444 462/238/444 458/239/444 460/240/444
o right_shin
v 0.25 0.5625 0.125
v 0.25 0.5625 -0.125
v 0.25 0 0.125
v 0.25 0 -0.125
v 0 0.5625 0.125
v 0 0.5625 -0.125
v 0 0 0.125
v 0 0 -0.125
vt 0.625 0.296875
vt 0.625 0.4375
vt 0.5625 0.4375
vt 0.5625 0.296875
vt 0.6875 0.71875
vt 0.6875 0.859375
vt 0.625 0.859375
vt 0.625 0.71875
vt 0.25 0.28125
vt 0.25 0.21875
vt 0.3125 0.21875
vt 0.3125 0.28125
vt 0.3125 0.21875
vt 0.3125 0.28125
vt 0.375 0.28125
vt 0.375 0.21875
vt 0.6875 0.859375
vt 0.6875 1
vt 0.625 1
vt 0.625 0.859375
vt 0.5625 0.296875
vt 0.5625 0.4375
vt 0.5 0.4375
vt 0.5 0.296875
vn 1 0 0
vn -1 0 0
vn 0 1 0
vn 0 -1 0
vn 0 0 1
vn 0 0 -1
usemtl m_cfaf0bf7-9b06-4372-1e17-d8dc0c302bc6
f 468/241/445 466/242/445 465/243/445 467/244/445
f 471/245/446 469/246/446 470/247/446 472/248/446
f 465/249/447 466/250/447 470/251/447 469/252/447
f 468/253/448 467/254/448 471/255/448 472/256/448
f 467/257/449 465/258/449 469/259/449 471/260/449
f 472/261/450 470/262/450 466/263/450 468/264/450
o right_leg
v 0.25 1.125 0.125
v 0.25 1.125 -0.125
v 0.25 0.5625 0.125
v 0.25 0.5625 -0.125
v 0 1.125 0.125
v 0 1.125 -0.125
v 0 0.5625 0.125
v 0 0.5625 -0.125
vt 0.4375 0.296875
vt 0.4375 0.4375
vt 0.375 0.4375
vt 0.375 0.296875
vt 0.5 0.296875
vt 0.5 0.4375
vt 0.4375 0.4375
vt 0.4375 0.296875
vt 0.125 0.28125
vt 0.125 0.21875
vt 0.1875 0.21875
vt 0.1875 0.28125
vt 0.1875 0.21875
vt 0.1875 0.28125
vt 0.25 0.28125
vt 0.25 0.21875
vt 0.625 0.4375
vt 0.625 0.578125
vt 0.5625 0.578125
vt 0.5625 0.4375
vt 0.625 0.578125
vt 0.625 0.71875
vt 0.5625 0.71875
vt 0.5625 0.578125
vn 1 0 0
vn -1 0 0
vn 0 1 0
vn 0 -1 0
vn 0 0 1
vn 0 0 -1
usemtl m_cfaf0bf7-9b06-4372-1e17-d8dc0c302bc6
f 476/265/451 474/266/451 473/267/451 475/268/451
f 479/269/452 477/270/452 478/271/452 480/272/452
f 473/273/453 474/274/453 478/275/453 477/276/453
f 476/277/454 475/278/454 479/279/454 480/280/454
f 475/281/455 473/282/455 477/283/455 479/284/455
f 480/285/456 478/286/456 474/287/456 476/288/456