<?xml version="1.0" encoding="UTF-8" standalone="no"?>
<!-- Created with Inkscape (http://www.inkscape.org/) -->

<svg
   width="128"
   height="128"
   viewBox="0 0 128 128"
   version="1.1"
   id="svg1"
   inkscape:version="1.4.3 (0d15f75042, 2025-12-25)"
   sodipodi:docname="normal.svg"
   inkscape:export-filename="normal.png"
   inkscape:export-xdpi="96"
   inkscape:export-ydpi="96"
   xmlns:inkscape="http://www.inkscape.org/namespaces/inkscape"
   xmlns:sodipodi="http://sodipodi.sourceforge.net/DTD/sodipodi-0.dtd"
   xmlns="http://www.w3.org/2000/svg"
   xmlns:svg="http://www.w3.org/2000/svg">
  <sodipodi:namedview
     id="namedview1"
     pagecolor="#505050"
     bordercolor="#eeeeee"
     borderopacity="1"
     inkscape:showpageshadow="0"
     inkscape:pageopacity="0"
     inkscape:pagecheckerboard="0"
     inkscape:deskcolor="#d1d1d1"
     inkscape:document-units="mm"
     inkscape:zoom="3.1835937"
     inkscape:cx="72.55951"
     inkscape:cy="70.517792"
     inkscape:window-width="1920"
     inkscape:window-height="1002"
     inkscape:window-x="0"
     inkscape:window-y="0"
     inkscape:window-maximized="1"
     inkscape:current-layer="g13" />
  <defs
     id="defs1">
    <inkscape:path-effect
       effect="taper_stroke"
       start_shape="center | center"
       end_shape="center | center"
       id="path-effect11"
       is_visible="true"
       lpeversion="1"
       stroke_width="5"
       subpath="1"
       attach_start="0.4244404"
       end_offset="0.22696933"
       start_smoothing="0.5"
       end_smoothing="0.5"
       jointype="extrapolated"
       miter_limit="100" />
    <mask
       maskUnits="userSpaceOnUse"
       id="mask2">
      <circle
         style="fill:#ffffff;fill-rule:evenodd;stroke-width:28.9261;stroke-linecap:square;stroke-miterlimit:86;paint-order:stroke fill markers"
         id="circle2"
         cx="64"
         cy="64"
         r="64" />
    </mask>
  </defs>
  <g
     inkscape:label="Layer 1"
     inkscape:groupmode="layer"
     id="layer1">
    <g
       id="g2"
       mask="url(#mask2)">
      <ellipse
         style="fill:#42291d;fill-opacity:1;fill-rule:evenodd;stroke:#000000;stroke-width:10;stroke-linecap:square;stroke-miterlimit:86;stroke-dasharray:none;stroke-opacity:1;paint-order:normal"
         id="path2"
         cx="-23.425627"
         cy="-87.425629"
         rx="64"
         ry="63.999996"
         transform="rotate(150)" />
      <path
         id="path4"
         style="display:inline;fill:none;fill-rule:evenodd;stroke:#261711;stroke-width:5;stroke-linecap:round;stroke-miterlimit:86;stroke-opacity:1"
         d="m 110.2447,37.300616 c 14.74567,25.54024 5.99493,58.19842 -19.545308,72.944084 -25.54024,14.74567 -58.198423,5.99494 -72.944088,-19.545306"
         sodipodi:nodetypes="csc" />
      <path
         id="path3"
         style="display:inline;fill:none;fill-rule:evenodd;stroke:#66543e;stroke-width:5;stroke-linecap:round;stroke-miterlimit:86;stroke-opacity:1"
         d="M 17.755303,90.699388 C 3.0096376,65.159148 11.760371,32.500968 37.300612,17.755303 62.840852,3.0096354 95.499035,11.760368 110.2447,37.30061"
         sodipodi:nodetypes="csc" />
      <path
         id="path5"
         style="display:inline;fill:none;fill-rule:evenodd;stroke:#261711;stroke-width:5;stroke-linecap:round;stroke-miterlimit:86;stroke-dasharray:none;stroke-opacity:1"
         d="M 25.808625,86.049804 C 13.630854,64.95729 20.857688,37.986396 41.950204,25.808624 63.042718,13.630853 90.013614,20.857687 102.19138,41.950201"
         sodipodi:nodetypes="csc" />
      <path
         id="path6"
         style="display:inline;fill:none;fill-rule:evenodd;stroke:#66543e;stroke-width:5;stroke-linecap:round;stroke-miterlimit:86;stroke-dasharray:none;stroke-opacity:1"
         d="m 102.19138,41.950206 c 12.17777,21.092514 4.95094,48.063407 -16.141572,60.241174 -21.092513,12.17777 -48.06341,4.95094 -60.241183,-16.141571"
         sodipodi:nodetypes="csc" />
    </g>
    <g
       id="g13">
      <path
         style="baseline-shift:baseline;display:inline;overflow:visible;fill:#967952;fill-rule:evenodd;stroke-linecap:round;stroke-linejoin:round;stroke-miterlimit:4.9;enable-background:accumulate;stop-color:#000000;stop-opacity:1;opacity:1;stroke:#000000;stroke-opacity:1;stroke-width:10;stroke-dasharray:none;paint-order:stroke fill markers;fill-opacity:1"
         d="m 38.863281,38.863281 a 2.5,2.5 0 0 0 0,3.535156 L 60.464844,64 38.876953,85.587891 a 2.5,2.5 0 0 0 0,3.535156 2.5,2.5 0 0 0 3.535156,0 L 64,67.535156 85.587891,89.123047 a 2.5,2.5 0 0 0 3.535156,0 2.5,2.5 0 0 0 0,-3.535156 L 67.535156,64 89.136719,42.398437 a 2.5,2.5 0 0 0 0,-3.535156 2.5,2.5 0 0 0 -3.535157,0 L 64,60.464844 42.398437,38.863281 a 2.5,2.5 0 0 0 -3.535156,0 z"
         id="path11" />
    </g>
  </g>
</svg>
